<svg width="46" height="64" viewBox="0 0 46 64" fill="none" xmlns="http://www.w3.org/2000/svg">
<rect x="0.5" y="0.5" width="63" height="63" rx="31.5" fill="#00B288" fill-opacity="0.1"/>
<rect x="0.5" y="0.5" width="63" height="63" rx="31.5" stroke="#A796E4" stroke-dasharray="5 5"/>
<path d="M36.2 22H27.8C24.1714 22 22 24.1714 22 27.8V36.2C22 39.8286 24.1714 42 27.8 42H36.2C39.8286 42 42 39.8286 42 36.2V27.8C42 24.1714 39.8286 22 36.2 22ZM38.8857 33.2286C38.6 33.5143 38.1714 33.7143 37.7143 33.7429H33.6857L33.7143 37.7143C33.6857 38.2 33.5143 38.6 33.1714 38.9429C32.8857 39.2286 32.4571 39.4286 32 39.4286C31.0571 39.4286 30.2857 38.6571 30.2857 37.7143V33.7143L26.2857 33.7429C25.3429 33.7429 24.5714 32.9429 24.5714 32C24.5714 31.0571 25.3429 30.2857 26.2857 30.2857L30.2857 30.3143V26.3143C30.2857 25.3714 31.0571 24.5714 32 24.5714C32.9429 24.5714 33.7143 25.3714 33.7143 26.3143L33.6857 30.2857H37.7143C38.6571 30.2857 39.4286 31.0571 39.4286 32C39.4 32.4857 39.2 32.8857 38.8857 33.2286Z" fill="#A796E4"/>
</svg>
