<svg width="48" height="48" viewBox="0 0 48 48" fill="none" xmlns="http://www.w3.org/2000/svg">
<path fill-rule="evenodd" clip-rule="evenodd" d="M13.1809 21.1702C13.7777 21.1701 14.361 21.3469 14.8573 21.6783C15.3536 22.0097 15.7404 22.4807 15.969 23.032C16.1976 23.5832 16.2576 24.1898 16.1415 24.7751C16.0254 25.3605 15.7383 25.8982 15.3166 26.3204C14.8949 26.7427 14.3575 27.0304 13.7723 27.1472C13.1872 27.2641 12.5805 27.2048 12.029 26.9769C11.4775 26.749 11.0059 26.3627 10.6739 25.8669C10.3419 25.371 10.1644 24.7878 10.1637 24.1911C10.1636 23.3905 10.4813 22.6226 11.0471 22.0562C11.6128 21.4897 12.3803 21.171 13.1809 21.1702ZM13.1809 28.7054C14.0747 28.7054 14.9483 28.4404 15.6914 27.9437C16.4345 27.4471 17.0136 26.7413 17.3554 25.9155C17.6973 25.0897 17.7865 24.1811 17.6119 23.3046C17.4373 22.4281 17.0066 21.623 16.3744 20.9913C15.7421 20.3596 14.9367 19.9296 14.0601 19.7557C13.1834 19.5818 12.2749 19.6718 11.4494 20.0143C10.6239 20.3568 9.91849 20.9365 9.42249 21.68C8.92649 22.4235 8.66213 23.2974 8.66287 24.1911C8.66414 25.3886 9.14068 26.5367 9.98781 27.3831C10.8349 28.2296 11.9834 28.7051 13.1809 28.7054ZM23.8086 21.1702C24.4053 21.1702 24.9886 21.3471 25.4848 21.6785C25.981 22.01 26.3678 22.4811 26.5963 23.0323C26.8248 23.5836 26.8847 24.1902 26.7686 24.7755C26.6524 25.3608 26.3653 25.8985 25.9436 26.3206C25.5218 26.7428 24.9844 27.0305 24.3993 27.1473C23.8141 27.2641 23.2074 27.2048 22.656 26.9768C22.1045 26.7489 21.633 26.3626 21.301 25.8668C20.969 25.371 20.7915 24.7878 20.7909 24.1911C20.7907 23.3904 21.1085 22.6224 21.6744 22.056C22.2402 21.4895 23.0079 21.1709 23.8086 21.1702ZM23.8086 28.7054C24.7024 28.7056 25.5761 28.4407 26.3194 27.9443C27.0626 27.4478 27.6418 26.742 27.9838 25.9162C28.3258 25.0905 28.4153 24.1818 28.2407 23.3052C28.0662 22.4286 27.6356 21.6235 27.0034 20.9917C26.3713 20.3599 25.5659 19.9297 24.6892 19.7558C23.8125 19.5818 22.9039 19.6717 22.0783 20.0142C21.2528 20.3567 20.5473 20.9364 20.0513 21.6799C19.5552 22.4234 19.2908 23.2973 19.2916 24.1911C19.2929 25.3885 19.7692 26.5364 20.6161 27.3828C21.463 28.2292 22.6112 28.7049 23.8086 28.7054ZM34.4362 21.1702C35.033 21.1699 35.6165 21.3465 36.1129 21.6778C36.6093 22.009 36.9963 22.48 37.2251 23.0312C37.4538 23.5824 37.514 24.1891 37.398 24.7745C37.282 25.3599 36.995 25.8977 36.5734 26.3201C36.1517 26.7424 35.6143 27.0302 35.0291 27.1471C34.4439 27.2641 33.8371 27.2049 33.2856 26.977C32.734 26.7491 32.2624 26.3628 31.9303 25.867C31.5983 25.3711 31.4207 24.7879 31.4201 24.1911C31.4201 23.3907 31.7377 22.6231 32.3032 22.0567C32.8687 21.4903 33.6359 21.1715 34.4362 21.1702ZM34.4362 28.7054C35.33 28.7056 36.2038 28.4407 36.947 27.9443C37.6902 27.4478 38.2695 26.742 38.6115 25.9162C38.9535 25.0905 39.0429 24.1818 38.8684 23.3052C38.6939 22.4286 38.2633 21.6235 37.6311 20.9917C36.9989 20.3599 36.1935 19.9297 35.3168 19.7558C34.4401 19.5818 33.5315 19.6717 32.706 20.0142C31.8804 20.3567 31.175 20.9364 30.6789 21.6799C30.1829 22.4234 29.9185 23.2973 29.9192 24.1911C29.9205 25.3885 30.3969 26.5364 31.2438 27.3828C32.0907 28.2292 33.2389 28.7049 34.4362 28.7054ZM0.0683767 45.8512C-0.00944893 46.1388 -0.0100232 46.4417 0.0667118 46.7296C0.143447 47.0174 0.294774 47.2799 0.505412 47.4905C0.716049 47.7012 0.978538 47.8525 1.26637 47.9292C1.55421 48.006 1.85719 48.0054 2.14473 47.9276L12.5985 45.128C17.0534 47.5247 22.1499 48.4577 27.165 47.7948C32.9304 47.0254 38.2205 44.1894 42.0525 39.8136C45.8845 35.4379 47.9979 29.8199 48 24.0034C48.0005 19.256 46.593 14.6151 43.9557 10.6677C41.3184 6.72033 37.5697 3.64369 33.1837 1.82697C28.7978 0.0102376 23.9715 -0.464978 19.3154 0.461422C14.6593 1.38782 10.3826 3.67422 7.026 7.03145C3.28377 10.7485 0.883971 15.6046 0.204382 20.8352C-0.451733 25.8482 0.480967 30.9408 2.87116 35.3959L0.0699768 45.8496L0.0683767 45.8512Z" fill="#A796E4"/>
</svg>
