<svg width="21" height="20" viewBox="0 0 21 20" fill="none" xmlns="http://www.w3.org/2000/svg">
<path d="M10.5 0C4.98 0 0.5 4.48 0.5 10C0.5 15.52 4.98 20 10.5 20C16.02 20 20.5 15.52 20.5 10C20.5 4.48 16.02 0 10.5 0ZM7.15 12.77C7.04 13.07 6.75 13.26 6.45 13.26C6.36 13.26 6.28 13.25 6.19 13.21C5.38 12.91 4.7 12.32 4.27 11.55C3.27 9.75 3.89 7.4 5.64 6.31L7.98 4.86C8.84 4.33 9.85 4.17 10.81 4.42C11.77 4.67 12.58 5.3 13.07 6.18C14.07 7.98 13.45 10.33 11.7 11.42L11.44 11.61C11.1 11.85 10.63 11.77 10.39 11.44C10.15 11.1 10.23 10.63 10.56 10.39L10.87 10.17C11.99 9.47 12.37 8.02 11.76 6.91C11.47 6.39 11 6.02 10.44 5.87C9.88 5.72 9.29 5.81 8.78 6.13L6.42 7.59C5.34 8.26 4.96 9.71 5.57 10.83C5.82 11.28 6.22 11.63 6.7 11.81C7.09 11.95 7.29 12.38 7.15 12.77ZM15.42 13.65L13.08 15.1C12.49 15.47 11.83 15.65 11.16 15.65C10.86 15.65 10.55 15.61 10.25 15.53C9.29 15.28 8.48 14.65 8 13.77C7 11.97 7.62 9.62 9.37 8.53L9.63 8.34C9.97 8.1 10.44 8.18 10.68 8.51C10.92 8.85 10.84 9.32 10.51 9.56L10.2 9.78C9.08 10.48 8.7 11.93 9.31 13.04C9.6 13.56 10.07 13.93 10.63 14.08C11.19 14.23 11.78 14.14 12.29 13.82L14.63 12.37C15.71 11.7 16.09 10.25 15.48 9.13C15.23 8.68 14.83 8.33 14.35 8.15C13.96 8.01 13.76 7.58 13.91 7.19C14.05 6.8 14.49 6.6 14.87 6.75C15.68 7.05 16.36 7.64 16.79 8.41C17.78 10.21 17.17 12.56 15.42 13.65Z" fill="white"/>
</svg>
