<svg width="32" height="31" viewBox="0 0 32 31" fill="none" xmlns="http://www.w3.org/2000/svg">
<path d="M22.7125 17.5094C22.6 17.3312 22.4781 17.1625 22.3469 16.9938C22.1594 16.7313 21.9344 16.4781 21.6344 16.1781C21.3625 15.9062 21.0813 15.6625 20.7812 15.4469C19.4125 14.3969 17.7437 13.8438 16 13.8438C14.2375 13.8438 12.5688 14.4156 11.2094 15.4469C10.6469 15.8687 10.1406 16.375 9.7 16.9469C9.55937 17.125 9.42813 17.3125 9.29688 17.5094C8.48125 18.775 8.03125 20.2844 8.03125 21.8125V22.2812V25.0938V25.5625C8.03125 26.3406 8.65938 26.9688 9.4375 26.9688H22.5625C23.3406 26.9688 23.9688 26.3406 23.9688 25.5625V25.0938V21.8125C23.9688 20.2656 23.5188 18.7562 22.7125 17.5094Z" fill="#A796E4"/>
<path d="M20.2188 8.21875C20.2188 10.5437 18.325 12.4375 16 12.4375C13.675 12.4375 11.7812 10.5437 11.7812 8.21875C11.7812 5.88437 13.675 4 16 4C18.325 4 20.2188 5.88437 20.2188 8.21875Z" fill="#A796E4"/>
<path d="M29.125 8.21875C29.125 10.5437 27.2312 12.4375 24.9062 12.4375C22.5812 12.4375 20.6875 10.5437 20.6875 8.21875C20.6875 5.88437 22.5812 4 24.9062 4C27.2312 4 29.125 5.88437 29.125 8.21875Z" fill="#A796E4"/>
<path d="M31.0002 19.9375V23.6875C31.0002 24.4656 30.3721 25.0938 29.5939 25.0938H25.3752V21.8125C25.3752 20.0219 24.8502 18.2219 23.9033 16.7594C23.7627 16.5438 23.6127 16.3375 23.4908 16.1781C23.2658 15.8594 23.0033 15.5594 22.6283 15.1844C22.4127 14.9688 22.1971 14.7719 21.9814 14.5937C22.8627 14.1062 23.8658 13.8438 24.9064 13.8438C26.5283 13.8438 28.0564 14.4719 29.2096 15.6156C30.3721 16.7875 31.0002 18.3156 31.0002 19.9375Z" fill="#A796E4"/>
<path d="M10.0281 14.5937C9.50312 15.025 9.01562 15.5312 8.59375 16.075C8.43437 16.2812 8.275 16.4969 8.11562 16.75C7.14062 18.2594 6.625 20.0125 6.625 21.8125V25.0938H2.40625C1.62812 25.0938 1 24.4656 1 23.6875V19.9375C1 16.5813 3.7375 13.8438 7.09375 13.8438C8.13437 13.8438 9.1375 14.1062 10.0281 14.5937Z" fill="#A796E4"/>
<path d="M11.3125 8.21875C11.3125 10.5437 9.41875 12.4375 7.09375 12.4375C4.76875 12.4375 2.875 10.5437 2.875 8.21875C2.875 5.88437 4.76875 4 7.09375 4C9.41875 4 11.3125 5.88437 11.3125 8.21875Z" fill="#A796E4"/>
</svg>
