<svg width="24" height="24" viewBox="0 0 24 24" fill="none" xmlns="http://www.w3.org/2000/svg">
<path d="M8.75998 1.72953H8.88999C13.33 1.72953 15.47 3.47953 15.84 7.39953C15.88 7.80953 15.58 8.17953 15.16 8.21953C14.76 8.25953 14.38 7.94953 14.34 7.53953C14.05 4.39953 12.57 3.22953 8.87998 3.22953H8.74998C4.67999 3.22953 3.23998 4.66953 3.23998 8.73953L3.23998 15.2595C3.23998 19.3295 4.67999 20.7695 8.74998 20.7695H8.87998C12.59 20.7695 14.07 19.5795 14.34 16.3795C14.39 15.9695 14.74 15.6595 15.16 15.6995C15.58 15.7295 15.88 16.0995 15.85 16.5095C15.51 20.4895 13.36 22.2695 8.88999 22.2695H8.75998C3.84999 22.2695 1.74998 20.1695 1.74998 15.2595L1.74998 8.73953C1.74998 3.82953 3.84999 1.72953 8.75998 1.72953Z" fill="white"/>
<path d="M8.99988 11.25L20.3799 11.25C20.7899 11.25 21.1299 11.59 21.1299 12C21.1299 12.41 20.7899 12.75 20.3799 12.75L8.99988 12.75C8.58988 12.75 8.24988 12.41 8.24988 12C8.24988 11.59 8.58988 11.25 8.99988 11.25Z" fill="white"/>
<path d="M18.1501 7.90016C18.3401 7.90016 18.5301 7.97016 18.6801 8.12016L22.0301 11.4702C22.3201 11.7602 22.3201 12.2402 22.0301 12.5302L18.6801 15.8802C18.3901 16.1702 17.9101 16.1702 17.6201 15.8802C17.3301 15.5902 17.3301 15.1102 17.6201 14.8202L20.4401 12.0002L17.6201 9.18016C17.3301 8.89016 17.3301 8.41016 17.6201 8.12016C17.7601 7.97016 17.9601 7.90016 18.1501 7.90016Z" fill="white"/>
</svg>
