<svg width="30" height="31" viewBox="0 0 30 31" fill="none" xmlns="http://www.w3.org/2000/svg">
<path d="M22.5855 17.6941L21.4154 15.7412C21.1697 15.3059 20.9474 14.4824 20.9474 14V11.0235C20.9474 8.25882 19.3327 5.87059 17.0042 4.75294C16.3958 3.67059 15.2725 3 13.9855 3C12.7101 3 11.5634 3.69412 10.955 4.78824C8.67332 5.92941 7.09372 8.29412 7.09372 11.0235V14C7.09372 14.4824 6.87141 15.3059 6.62569 15.7294L5.44392 17.6941C4.97589 18.4824 4.87059 19.3529 5.1631 20.1529C5.44392 20.9412 6.11086 21.5529 6.97672 21.8471C9.24666 22.6235 11.6336 23 14.0206 23C16.4075 23 18.7945 22.6235 21.0644 21.8588C21.8835 21.5882 22.5153 20.9647 22.8195 20.1529C23.1237 19.3412 23.0418 18.4471 22.5855 17.6941Z" fill="#A796E4"/>
<path d="M17 24.01C16.554 25.17 15.3752 26 13.9947 26C13.1558 26 12.3274 25.68 11.7434 25.11C11.4035 24.81 11.1487 24.41 11 24C11.1381 24.02 11.2761 24.03 11.4248 24.05C11.669 24.08 11.9239 24.11 12.1788 24.13C12.7841 24.18 13.4 24.21 14.0159 24.21C14.6212 24.21 15.2265 24.18 15.8212 24.13C16.0442 24.11 16.2673 24.1 16.4796 24.07C16.6496 24.05 16.8195 24.03 17 24.01Z" fill="#A796E4"/>
<path d="M15 6.46875C15.6439 6.46875 16.2449 6.27359 16.6955 5.93566C17.1462 5.59762 17.4688 5.09484 17.4688 4.5C17.4688 3.90516 17.1462 3.40238 16.6955 3.06434C16.2449 2.72641 15.6439 2.53125 15 2.53125C14.3561 2.53125 13.7551 2.72641 13.3045 3.06434C12.8538 3.40238 12.5312 3.90516 12.5312 4.5C12.5312 5.09484 12.8538 5.59762 13.3045 5.93566C13.7551 6.27359 14.3561 6.46875 15 6.46875Z" fill="#FFAE3D" stroke="white" stroke-width="0.9375"/>
</svg>
