<svg width="24" height="24" viewBox="0 0 24 24" fill="none" xmlns="http://www.w3.org/2000/svg">
<path d="M20.3077 0H3.69231C2.71305 0 1.77389 0.38901 1.08145 1.08145C0.38901 1.77389 0 2.71305 0 3.69231V20.3077C0 21.287 0.38901 22.2261 1.08145 22.9185C1.77389 23.611 2.71305 24 3.69231 24H20.3077C21.287 24 22.2261 23.611 22.9185 22.9185C23.611 22.2261 24 21.287 24 20.3077V3.69231C24 2.71305 23.611 1.77389 22.9185 1.08145C22.2261 0.38901 21.287 0 20.3077 0ZM8.30769 11.0769H15.6923C15.9371 11.0769 16.1719 11.1742 16.345 11.3473C16.5181 11.5204 16.6154 11.7552 16.6154 12C16.6154 12.2448 16.5181 12.4796 16.345 12.6527C16.1719 12.8258 15.9371 12.9231 15.6923 12.9231H8.30769C8.06288 12.9231 7.82809 12.8258 7.65498 12.6527C7.48187 12.4796 7.38461 12.2448 7.38461 12C7.38461 11.7552 7.48187 11.5204 7.65498 11.3473C7.82809 11.1742 8.06288 11.0769 8.30769 11.0769Z" fill="#A796E4"/>
<path d="M6 12C6 8.68629 8.68629 6 12 6C15.3137 6 18 8.68629 18 12C18 15.3137 15.3137 18 12 18C8.68629 18 6 15.3137 6 12Z" fill="#A796E4"/>
<rect x="7.5" y="10.5" width="9" height="3" rx="1.5" fill="white"/>
<rect x="13.5" y="7.5" width="9" height="3" rx="1.5" transform="rotate(90 13.5 7.5)" fill="white"/>
</svg>
