<svg width="128" height="128" viewBox="0 0 128 128" fill="none" xmlns="http://www.w3.org/2000/svg">
<path d="M64 0C51.342 0 38.9683 3.75353 28.4435 10.7859C17.9188 17.8184 9.71574 27.8138 4.87174 39.5083C0.0277304 51.2027 -1.23968 64.071 1.22977 76.4858C3.69922 88.9005 9.79463 100.304 18.7452 109.255C27.6957 118.205 39.0995 124.301 51.5142 126.77C63.929 129.24 76.7973 127.972 88.4917 123.128C100.186 118.284 110.182 110.081 117.214 99.5565C124.246 89.0317 128 76.658 128 64C127.979 47.0325 121.23 30.766 109.232 18.7682C97.234 6.77041 80.9675 0.0208745 64 0ZM52.6672 91.7929L29.0025 68.1282L38.258 58.7412L52.6672 73.1504L89.742 36.0756L98.9975 45.5941L52.6672 91.7929Z" fill="#A796E4"/>
</svg>
